# This file uses centimeters as units for non-parametric coordinates.

mtllib Cliff_02.mtl
g default
v -10.775170 0.217273 31.707498
v 9.546882 0.217273 31.707498
v -10.775170 20.539326 31.707498
v -10.775170 0.217273 6.586964
v -10.775170 15.251973 6.586964
v -10.775170 20.539326 16.672801
v 4.259529 15.251973 11.385448
v 5.554248 17.212149 16.672801
v 9.546882 13.245443 16.672801
v 5.554248 17.212149 31.707498
v 9.546882 9.356433 31.707498
v 9.546882 0.217273 16.672801
v 4.259529 0.217273 11.385448
vt 0.125000 0.000000
vt 0.375000 0.250000
vt 0.190045 0.250000
vt 0.125000 0.184955
vt 0.375000 0.000000
vt 0.625000 0.815045
vt 0.625000 1.000000
vt 0.375000 1.000000
vt 0.375000 0.434955
vt 0.625000 0.565045
vt 0.559955 0.750000
vt 0.559955 0.434955
vt 0.625000 0.184955
vt 0.559955 0.250000
vt 0.375000 0.565045
vt 0.559955 0.565045
vt 0.375000 0.750000
vt 0.625000 0.000000
vt 0.809955 0.000000
vt 0.809955 0.184955
vt 0.625000 0.434955
vn 0.000000 0.000000 1.000000
vn 0.000000 0.000000 1.000000
vn 0.000000 0.000000 1.000000
vn 0.000000 0.000000 1.000000
vn 0.000000 0.000000 1.000000
vn 0.000000 -1.000000 0.000000
vn 0.000000 -1.000000 0.000000
vn 0.000000 -1.000000 0.000000
vn 0.000000 -1.000000 0.000000
vn 0.000000 -1.000000 0.000000
vn -1.000000 0.000000 0.000000
vn -1.000000 0.000000 0.000000
vn -1.000000 0.000000 0.000000
vn -1.000000 0.000000 0.000000
vn -1.000000 0.000000 0.000000
vn 0.160236 0.887561 -0.431926
vn 0.160236 0.887561 -0.431926
vn 0.160236 0.887561 -0.431926
vn 0.160236 0.887561 -0.431926
vn 0.707107 0.000000 -0.707107
vn 0.707107 0.000000 -0.707107
vn 0.707107 0.000000 -0.707107
vn 0.707107 0.000000 -0.707107
vn 0.826519 0.558259 0.072202
vn 0.826519 0.558259 0.072202
vn 0.826519 0.558259 0.072202
vn 0.826519 0.558259 0.072202
vn 0.199651 0.979867 0.000000
vn 0.199651 0.979867 0.000000
vn 0.199651 0.979867 0.000000
vn 0.199651 0.979867 0.000000
vn 0.304050 0.000000 -0.952656
vn 0.304050 0.000000 -0.952656
vn 0.304050 0.000000 -0.952656
vn 0.304050 0.000000 -0.952656
vn 1.000000 0.000000 0.000000
vn 1.000000 0.000000 0.000000
vn 1.000000 0.000000 0.000000
vn 1.000000 0.000000 0.000000
vn 0.646161 0.650385 -0.399343
vn 0.646161 0.650385 -0.399343
vn 0.646161 0.650385 -0.399343
s off
g pCube3 group1 blockout
usemtl initialShadingGroup
f 1/5/1 2/18/2 11/13/3 10/14/4 3/2/5
f 4/17/6 13/11/7 12/6/8 2/7/9 1/8/10
f 4/1/11 1/5/12 3/2/13 6/3/14 5/4/15
f 5/15/16 6/9/17 8/12/18 7/16/19
f 7/16/20 9/10/21 12/6/22 13/11/23
f 9/21/24 8/12/25 10/14/26 11/13/27
f 3/2/28 10/14/29 8/12/30 6/9/31
f 5/15/32 7/16/33 13/11/34 4/17/35
f 2/18/36 12/19/37 9/20/38 11/13/39
f 7/16/40 8/12/41 9/21/42
