# This file uses centimeters as units for non-parametric coordinates.

mtllib Cliff_03.mtl
g default
v -18.535524 -0.000000 -32.903382
v 10.953277 0.228558 -35.048281
v -14.293859 17.549922 -22.145193
v 6.535004 17.549922 -22.145193
v -18.535524 -0.000000 -20.000293
v -1.949813 0.228558 -17.726921
v 10.953277 0.228558 -22.145193
v 6.535004 0.228558 -17.726921
v -14.293859 17.549922 -35.048281
v 10.953277 13.131649 -35.048281
v 6.535004 17.549922 -35.048281
v 21.433654 0.228558 -35.048281
v -13.624419 11.773282 -20.864475
v -18.535524 3.951441 -20.000293
v -13.493081 10.639946 -33.516298
v -18.535524 5.092360 -32.903382
v -13.078265 12.220905 -22.340450
v -9.691573 10.179594 -17.726921
v 6.535004 12.299778 -22.984670
v 6.535004 10.066042 -17.726921
v 10.953277 13.131649 -26.074464
v 8.744361 15.340563 -22.145193
v 10.953277 9.605074 -22.145193
v 15.875592 13.131649 -26.074464
v 20.853354 9.202376 -21.776062
v 21.433654 9.202376 -26.074464
v 21.433654 0.228558 -26.074464
v 20.853354 0.228558 -21.776062
v 21.433654 9.202376 -35.048281
v 15.875592 13.131649 -35.048281
vt 0.625000 0.750000
vt 0.625000 0.936231
vt 0.561231 1.000000
vt 0.438769 1.000000
vt 0.375000 0.936231
vt 0.438769 0.500000
vt 0.625000 0.563769
vt 0.375000 0.750000
vt 0.625000 0.389900
vt 0.561231 0.500000
vt 0.875000 0.000000
vt 0.359607 0.186231
vt 0.375000 0.325648
vt 0.375000 0.603937
vt 0.625006 0.249994
vt 0.688769 0.135332
vt 0.875000 0.186231
vt 0.688769 0.129520
vt 0.745480 0.000000
vt 0.400693 0.313769
vt 0.393222 0.545547
vt 0.311231 0.129596
vt 0.438769 0.000000
vt 0.438769 0.313769
vt 0.561231 0.248804
vt 0.561231 0.141985
vt 0.438769 0.143624
vt 0.561231 0.000000
vt 0.745480 0.129520
vt 0.875000 0.000000
vt 0.875000 0.129520
vt 0.125000 0.000000
vt 0.311231 0.000000
vt 0.125000 0.146063
vt 0.362616 0.237616
vt 0.438769 0.246528
vt 0.561231 0.313769
vt 0.688769 0.000000
vt 0.688769 0.000000
vt 0.875000 0.186231
vt 0.745480 0.186231
vt 0.745480 0.186231
vt 0.593119 0.313769
vt 0.625000 0.313769
vn 0.007666 -0.999965 0.003273
vn 0.007666 -0.999965 0.003273
vn 0.007666 -0.999965 0.003273
vn 0.007666 -0.999965 0.003273
vn 0.007666 -0.999965 0.003273
vn 0.007666 -0.999965 0.003273
vn 0.707107 0.707107 0.000000
vn 0.697998 0.699792 0.151954
vn 0.728864 0.684198 0.025110
vn 0.707107 0.707107 0.000000
vn 0.707107 0.707107 0.000000
vn 0.000000 1.000000 0.000000
vn 0.000000 1.000000 0.000000
vn 0.000000 1.000000 0.000000
vn 0.000000 1.000000 0.000000
vn 0.000000 -1.000000 0.000000
vn 0.000000 -1.000000 0.000000
vn 0.000000 -1.000000 0.000000
vn 0.000000 -1.000000 0.000000
vn 0.000000 -1.000000 0.000000
vn 0.000000 0.000000 -1.000000
vn 0.000000 0.000000 -1.000000
vn 0.000000 0.000000 -1.000000
vn 0.000000 0.000000 -1.000000
vn 0.000000 0.000000 -1.000000
vn -0.056933 -0.049969 -0.997127
vn -0.056933 -0.049969 -0.997127
vn -0.056933 -0.049969 -0.997127
vn -0.056933 -0.049969 -0.997127
vn -0.056933 -0.049969 -0.997127
vn -0.056933 -0.049969 -0.997127
vn -0.056933 -0.049969 -0.997127
vn -0.910291 0.386769 0.147582
vn -0.170892 -0.053961 0.983811
vn -0.085567 0.452305 0.887749
vn -0.133644 0.521339 0.842820
vn -0.924753 0.380559 -0.002516
vn -0.956915 0.290358 -0.002295
vn -0.905723 0.423862 -0.002802
vn 0.016048 0.296695 0.954837
vn 0.004207 0.483612 0.875273
vn 0.015164 0.470144 0.882460
vn 0.169887 0.517425 0.838695
vn 0.654317 0.094229 0.750327
vn 0.672446 0.136612 0.727430
vn 0.003466 0.742047 0.670339
vn 0.003466 0.742047 0.670339
vn 0.003466 0.742047 0.670339
vn 0.003466 0.742047 0.670339
vn 0.577265 0.816557 0.000000
vn 0.577265 0.816557 0.000000
vn 0.577265 0.816557 0.000000
vn 0.577265 0.816557 0.000000
vn 0.991010 0.000000 0.133790
vn 0.991010 0.000000 0.133790
vn 0.991010 0.000000 0.133790
vn 0.991010 0.000000 0.133790
vn -0.993429 -0.114406 0.003246
vn -0.993352 -0.115117 0.000000
vn -0.154190 -0.085862 0.984303
vn -0.040104 -0.022332 0.998946
vn 0.016041 -0.095506 0.995300
vn 0.016041 -0.095506 0.995300
vn 0.707107 0.000000 0.707107
vn 0.707107 0.000000 0.707107
vn 0.000000 0.000000 1.000000
vn 1.000000 0.000000 0.000000
vn 1.000000 0.000000 0.000000
vn 1.000000 0.000000 0.000000
vn 1.000000 0.000000 0.000000
vn -1.000000 0.000000 0.000000
vn -1.000000 0.000000 0.000000
vn -0.155958 -0.155958 0.975374
vn -0.037260 0.000000 0.999306
vn -0.037260 0.000000 0.999306
vn -0.037260 0.000000 0.999306
vn -0.037260 0.000000 0.999306
vn 0.000000 1.000000 0.000000
vn 0.000000 1.000000 0.000000
vn 0.000000 1.000000 0.000000
vn 0.000000 1.000000 0.000000
vn 0.575520 0.814088 0.077697
vn 0.575520 0.814088 0.077697
vn 0.575520 0.814088 0.077697
s off
g pCube4 group1 blockout
usemtl initialShadingGroup
f 1/8/1 2/1/2 7/2/3 8/3/4 6/4/5 5/5/6
s 1
f 4/37/7 22/43/8 21/9/9 10/7/10 11/10/11
s off
f 3/24/12 4/37/13 11/10/14 9/6/15
f 7/38/16 2/11/17 12/30/18 27/19/19 28/39/20
f 2/11/21 10/40/22 30/17/23 29/31/24 12/30/25
f 16/14/26 15/21/27 9/6/28 11/10/29 10/7/30 2/1/31 1/8/32
s 2
f 13/12/33 14/22/34 18/27/35 17/36/36
f 14/13/37 13/20/33 15/21/38 16/14/39
f 17/36/40 18/27/35 20/26/41 19/25/42
s 1
f 19/25/43 20/26/44 23/16/45 22/15/8
s off
f 21/41/46 23/16/47 25/18/48 24/42/49
f 24/42/50 26/29/51 29/31/52 30/17/53
f 26/29/54 25/18/55 28/39/56 27/19/57
s 2
f 13/20/33 3/24/58 9/6/59 15/21/38
f 18/27/35 14/22/34 5/33/60 6/23/61
f 3/24/62 17/36/40 19/25/42 4/37/63
s 1
f 23/16/45 20/26/44 8/28/64 7/38/65
s 2
f 18/27/35 6/23/61 8/28/66 20/26/41
s off
f 26/29/67 27/19/68 12/30/69 29/31/70
s 2
f 1/32/71 5/33/72 14/22/37 16/34/39
f 13/35/33 17/36/36 3/24/58
s 1
f 4/37/73 19/25/43 22/15/8
s off
f 25/18/74 23/16/75 7/38/76 28/39/77
f 10/40/78 21/41/79 24/42/80 30/17/81
s 1
f 21/9/9 22/43/8 23/44/45
s off
f 24/42/82 25/18/83 26/29/84
