# This file uses centimeters as units for non-parametric coordinates.

mtllib Cliff_01.mtl
g default
v -30.530390 1.415221 29.403411
v -9.499973 1.415221 29.403411
v -30.530390 28.732663 29.403411
v -30.530390 28.732663 10.451734
v -28.299307 26.501581 -1.117136
v -22.912992 21.115264 -3.348223
v -11.731057 21.115264 5.065417
v -17.117373 21.115264 2.834332
v -17.117373 26.501581 5.065417
v -17.117373 28.732663 10.451734
v -8.999974 27.419590 10.451734
v -9.499973 21.115264 10.451734
v -8.999974 26.501581 29.403411
v -17.117373 28.732663 29.403411
v -9.499973 21.115264 29.403411
v -30.530390 1.415221 10.451734
v -28.299307 1.415221 -1.117136
v -23.633010 1.415221 -3.348223
v -9.499973 1.415221 10.451734
v -17.117373 1.415221 2.834332
v -11.731057 1.415221 5.065417
v -12.721001 25.511634 6.055360
vt 0.534448 0.750000
vt 0.803325 0.000000
vt 0.625000 0.180288
vt 0.534448 0.428325
vt 0.534448 0.250000
vt 0.375000 0.428325
vt 0.465552 0.569712
vt 0.534448 0.569712
vt 0.625000 0.000000
vt 0.803325 0.180288
vt 0.375000 0.250000
vt 0.375000 0.000000
vt 0.625000 0.821675
vt 0.625000 1.000000
vt 0.375000 1.000000
vt 0.375000 0.821675
vt 0.196675 0.250000
vt 0.196675 0.000000
vt 0.465552 0.750000
vt 0.375000 0.500000
vt 0.125000 0.250000
vt 0.625000 0.548092
vt 0.875000 0.201908
vt 0.538425 0.499880
vt 0.825566 0.250000
vt 0.625000 0.450566
vt 0.625000 0.250000
vt 0.125000 0.000000
vt 0.375000 0.750000
vt 0.875000 0.000000
vt 0.625000 0.750000
vt 0.625000 0.500000
vt 0.875000 0.250000
vn 0.277455 0.124778 -0.952601
vn 0.498299 0.532544 -0.684175
vn 0.452627 0.477052 -0.753359
vn 0.570300 0.126568 -0.811627
vn 0.061936 0.967190 -0.246389
vn 0.016920 0.997589 -0.067311
vn 0.085674 0.993861 -0.070008
vn 0.087463 0.954569 -0.284866
vn 0.375901 0.055436 -0.925000
vn 0.382683 0.000000 -0.923880
vn 0.589046 -0.007910 -0.808061
vn 0.910195 0.017825 -0.413796
vn 0.995113 -0.010849 -0.098150
vn 0.995825 0.000000 -0.091288
vn 0.923880 0.000000 -0.382683
vn 0.993505 -0.055581 -0.099290
vn 0.996360 -0.085227 -0.002064
vn 0.999808 -0.019569 -0.000474
vn 0.213736 0.976566 -0.025205
vn 0.082025 0.996589 0.009100
vn 0.213223 0.976717 0.023656
vn 0.000000 1.000000 0.000000
vn 0.275930 -0.005504 -0.961162
vn 1.000000 0.000000 0.000000
vn -0.997840 0.000000 -0.065693
vn -0.997474 0.000000 -0.071038
vn -1.000000 0.000000 0.000000
vn -1.000000 0.000000 0.000000
vn -0.000000 0.000000 1.000000
vn -0.000000 0.000000 1.000000
vn -0.000000 0.000000 1.000000
vn -0.000000 0.000000 1.000000
vn -0.000000 0.000000 1.000000
vn -0.000000 0.000000 1.000000
vn 0.000000 -1.000000 0.000000
vn 0.000000 -1.000000 0.000000
vn 0.000000 -1.000000 0.000000
vn 0.000000 -1.000000 0.000000
vn 0.000000 -1.000000 0.000000
vn 0.000000 -1.000000 0.000000
vn 0.000000 -1.000000 0.000000
vn 0.000000 -1.000000 0.000000
vn -0.981907 0.000000 -0.189363
vn -0.981907 0.000000 -0.189363
vn -0.402800 0.006476 -0.915265
vn -0.402800 0.006476 -0.915265
vn 0.843326 0.087663 -0.530205
vn 0.325270 0.325270 -0.887919
vn 0.196027 0.874118 -0.444400
s 1
g pCube2 group1 blockout
usemtl initialShadingGroup
f 6/7/1 5/20/2 9/24/3 8/8/4
s 2
f 5/20/5 4/6/6 10/4/7 9/24/8
s 1
f 8/8/4 7/22/9 21/31/10 20/1/11
s 3
f 7/23/12 12/10/13 19/2/14 21/30/15
f 12/10/13 11/25/16 13/27/17 15/3/18
s 2
f 11/26/19 10/4/7 14/5/20 13/27/21
f 3/11/22 14/5/20 10/4/7 4/6/6
s 1
f 6/7/1 8/8/4 20/1/11 18/19/23
s 3
f 2/9/24 19/2/14 12/10/13 15/3/18
s 4
f 4/17/25 16/18/26 1/12/27 3/11/28
s off
f 13/27/29 14/5/30 3/11/31 1/12/32 2/9/33 15/3/34
f 19/13/35 2/14/36 1/15/37 16/16/38 17/29/39 18/19/40 20/1/41 21/31/42
s 4
f 4/17/25 5/21/43 17/28/44 16/18/26
s 1
f 5/20/45 6/7/1 18/19/23 17/29/46
s 3
f 11/25/16 12/10/13 7/23/12 22/33/47
s 1
f 7/22/9 8/8/4 9/24/3 22/32/48
s 2
f 9/24/8 10/4/7 11/26/19 22/32/49
